<?xml version="1.0" encoding="utf-8"?>
<!-- Generator: Adobe Illustrator 23.0.1, SVG Export Plug-In . SVG Version: 6.00 Build 0)  -->
<svg version="1.1" id="Layer_1" xmlns="http://www.w3.org/2000/svg" xmlns:xlink="http://www.w3.org/1999/xlink" x="0px" y="0px"
	 viewBox="0 0 1920.5 1080" style="enable-background:new 0 0 1920.5 1080;" xml:space="preserve">
<style type="text/css">
	.st0{fill:#DBE6EA;}
	.st1{opacity:0.54;fill:#FEB842;}
	.st2{opacity:0.51;fill:#48BC59;}
	.st3{opacity:0.5;fill:#32D6FE;}
	.st4{opacity:0.5;fill:#31D8FE;enable-background:new    ;}
	.st5{opacity:0.53;fill:#0972D1;}
</style>
<rect y="0" class="st0" width="1920" height="1080"/>
<circle class="st1" cx="125.5" cy="446.1" r="85"/>
<path class="st2" d="M1710.8,808.1c-246.9,0-447-200.1-447-447c0-148.4,72.3-279.8,183.6-361.1h-202.8
	c-77.4,99.8-123.5,225.1-123.5,361.1c0,325.7,264,589.7,589.7,589.7c73.7,0,144.2-13.5,209.2-38.2V756.2
	C1857.6,789.3,1786.4,808.1,1710.8,808.1z"/>
<circle class="st3" cx="81.5" cy="614.5" r="41"/>
<path class="st4" d="M0,540C234.4,297.3,1,79.5,1,79.5S4.1,542.7,0,540z"/>
<path class="st5" d="M40.5,799.4c-13.8,0-27.3,1.2-40.5,3.6v113.9c12.6-4.6,26.3-7.1,40.5-7.1c65.4,0,118.4,53,118.4,118.4
	c0,18.6-4.3,36.2-11.9,51.9h116.4c3.9-16.7,5.9-34,5.9-51.9C269.2,901.8,166.8,799.4,40.5,799.4z"/>
</svg>
