<?xml version="1.0" encoding="UTF-8"?>
<!DOCTYPE svg PUBLIC "-//W3C//DTD SVG 1.1//EN" "http://www.w3.org/Graphics/SVG/1.1/DTD/svg11.dtd">
<!-- Creator: CorelDRAW 2018 (64-Bit) -->
<svg xmlns="http://www.w3.org/2000/svg" xml:space="preserve" width="1.59859in" height="0.489638in" version="1.1" style="shape-rendering:geometricPrecision; text-rendering:geometricPrecision; image-rendering:optimizeQuality; fill-rule:evenodd; clip-rule:evenodd"
viewBox="0 0 981.25 300.55"
 xmlns:xlink="http://www.w3.org/1999/xlink">
 <defs>
  <style type="text/css">
   <![CDATA[
    .fil2 {fill:none}
    .fil0 {fill:black}
    .fil1 {fill:#378C3B}
    .fil4 {fill:black;fill-rule:nonzero}
    .fil3 {fill:#378C3B;fill-rule:nonzero}
   ]]>
  </style>
 </defs>
 <g id="Layer_x0020_1">
  <metadata id="CorelCorpID_0Corel-Layer"/>
  <g id="_2965069580688">
   <g>
    <path class="fil0" d="M183.9 164.31c17.35,0 32.81,6.94 44.16,18.3 11.36,11.36 18.3,26.81 18.3,44.16 0,17.35 -6.94,32.81 -18.3,44.16 -11.36,11.36 -27.13,18.3 -44.16,18.3 -17.35,0 -32.81,-6.94 -44.16,-18.3 -11.36,-11.35 -18.3,-26.81 -18.3,-44.16 0,-17.35 6.94,-33.12 18.3,-44.16 11.04,-11.36 26.81,-18.3 44.16,-18.3zm34.07 28.71c-8.83,-8.52 -20.82,-14.2 -34.07,-14.2 -13.25,0 -25.24,5.36 -34.07,14.2 -8.83,8.83 -14.2,20.82 -14.2,34.07 0,13.25 5.36,25.24 14.2,34.07 8.52,8.52 20.82,14.2 34.07,14.2 13.25,0 25.24,-5.36 34.07,-14.2 8.52,-8.52 14.2,-20.82 14.2,-34.07 -0.31,-13.25 -5.68,-25.24 -14.2,-34.07z"/>
    <path class="fil0" d="M187.06 255.48l6.31 -2.21c0.95,-0.31 1.58,-0.31 2.21,0.31 0.63,0.32 0.94,0.95 1.26,1.89l0.31 2.52 -0.31 0.32c-5.99,3.78 -14.51,7.89 -21.45,9.15 -1.26,0.31 -2.53,0.31 -3.47,-0.63 -0.95,-0.95 -1.58,-2.21 -1.26,-3.47l7.26 -42.9 -4.42 1.58c-1.26,0.31 -2.53,-0.32 -3.15,-1.26l-1.58 -2.84 0.63 -0.31c5.99,-3.79 13.88,-6.31 20.82,-8.2 1.26,-0.31 2.53,-0.31 3.47,0.63 0.95,0.94 1.58,2.21 1.26,3.47l-7.89 41.95z"/>
    <path class="fil1" d="M108.19 11.32c18.29,0 34.7,7.57 46.68,19.24 11.99,11.99 19.24,28.39 19.24,46.69 0,18.3 -7.25,34.7 -19.24,46.68 -5.36,5.36 -11.67,9.78 -18.93,13.25 8.52,2.21 16.72,5.68 24.29,9.78 3.47,1.89 4.73,6.31 2.84,9.78 -1.89,3.47 -6.31,4.73 -9.78,2.84 -6.94,-3.78 -14.2,-6.62 -22.08,-8.52 -7.57,-1.89 -15.46,-2.84 -23.34,-2.84 -25.87,0 -49.21,10.41 -66.56,27.76 -17.03,17.03 -27.76,40.37 -27.76,66.24l0 12.94c0,2.52 0.95,4.73 2.53,6.31 1.58,1.58 4.1,2.53 6.94,2.53l90.53 0c4.1,0 7.26,3.15 7.26,7.26 0,4.1 -3.15,7.25 -7.26,7.25l-89.9 0c-6.62,0 -12.62,-2.53 -16.72,-6.94 -4.42,-4.1 -6.94,-10.09 -6.94,-16.72l0 -12.93c0,-29.65 12.3,-57.09 31.86,-76.66 13.25,-13.25 29.97,-23.03 48.58,-28.08 -6.94,-3.15 -13.25,-7.89 -18.61,-13.25 -11.99,-11.99 -19.24,-28.39 -19.24,-46.69 0,-18.29 7.26,-34.7 19.24,-46.68 11.67,-11.67 28.08,-19.24 46.37,-19.24l-0 0zm36.28 29.65c-9.15,-9.15 -22.08,-15.14 -36.27,-15.14 -14.2,0 -27.13,5.68 -36.28,15.14 -9.15,9.15 -15.14,22.08 -15.14,36.28 0,14.2 5.68,27.13 15.14,36.27 9.46,9.15 22.08,15.14 36.28,15.14 14.19,0 27.13,-5.68 36.27,-15.14 9.15,-9.46 15.14,-22.08 15.14,-36.27 0,-14.19 -5.68,-27.13 -15.14,-36.28z"/>
    <path class="fil0" d="M185.79 187.65c3.79,-2.21 9.78,-2.52 12.3,1.89 2.53,4.42 -0.31,9.46 -4.1,11.67 -3.79,2.21 -9.78,2.53 -12.3,-1.89 -2.53,-4.1 0.31,-9.46 4.1,-11.67z"/>
   </g>
   <rect class="fil2" x="-0" width="942.1" height="300.55"/>
   <path class="fil3" d="M339.49 102.24l0 66.29c0,7.26 1.89,12.81 5.68,16.65 3.78,3.84 9.11,5.75 15.96,5.75 6.96,0 12.33,-1.92 16.11,-5.75 3.78,-3.84 5.68,-9.39 5.68,-16.65l0 -66.29 21.64 0 0 66.14c0,9.11 -1.97,16.81 -5.91,23.1 -3.94,6.29 -9.21,11.02 -15.81,14.2 -6.6,3.17 -13.94,4.76 -22.02,4.76 -7.98,0 -15.22,-1.59 -21.71,-4.76 -6.5,-3.17 -11.64,-7.9 -15.42,-14.2 -3.78,-6.29 -5.68,-13.99 -5.68,-23.1l0 -66.14 21.48 0z"/>
   <path id="1" class="fil3" d="M457.81 210.74c-6.96,0 -13.2,-1.25 -18.72,-3.76 -5.52,-2.51 -9.9,-5.91 -13.12,-10.21 -3.22,-4.3 -4.99,-9.06 -5.29,-14.27l21.64 0c0.41,3.27 2.02,5.99 4.83,8.13 2.81,2.15 6.32,3.22 10.51,3.22 4.09,0 7.29,-0.82 9.59,-2.46 2.3,-1.64 3.45,-3.73 3.45,-6.29 0,-2.76 -1.41,-4.83 -4.22,-6.22 -2.81,-1.38 -7.29,-2.89 -13.43,-4.53 -6.34,-1.53 -11.53,-3.12 -15.58,-4.76 -4.04,-1.64 -7.52,-4.14 -10.43,-7.52 -2.92,-3.38 -4.37,-7.93 -4.37,-13.66 0,-4.71 1.36,-9 4.07,-12.89 2.71,-3.89 6.6,-6.96 11.66,-9.21 5.06,-2.25 11.02,-3.38 17.88,-3.38 10.13,0 18.21,2.53 24.25,7.6 6.03,5.06 9.36,11.89 9.97,20.49l-20.56 0c-0.31,-3.38 -1.71,-6.06 -4.22,-8.06 -2.51,-1.99 -5.86,-2.99 -10.05,-2.99 -3.89,0 -6.88,0.72 -8.98,2.15 -2.1,1.43 -3.15,3.43 -3.15,5.98 0,2.87 1.43,5.04 4.3,6.52 2.86,1.48 7.32,2.99 13.35,4.53 6.14,1.53 11.2,3.12 15.19,4.76 3.99,1.64 7.44,4.17 10.36,7.6 2.92,3.43 4.42,7.96 4.53,13.58 0,4.91 -1.36,9.31 -4.07,13.2 -2.71,3.89 -6.6,6.93 -11.66,9.13 -5.07,2.2 -10.97,3.3 -17.72,3.3z"/>
   <path id="2" class="fil3" d="M587.94 165.01c0,3.07 -0.21,5.83 -0.61,8.29l-62.15 0c0.51,6.14 2.66,10.95 6.45,14.42 3.78,3.48 8.44,5.22 13.96,5.22 7.98,0 13.66,-3.43 17.03,-10.28l23.17 0c-2.46,8.19 -7.16,14.91 -14.12,20.18 -6.96,5.27 -15.5,7.9 -25.63,7.9 -8.19,0 -15.53,-1.82 -22.02,-5.45 -6.5,-3.63 -11.56,-8.77 -15.19,-15.42 -3.63,-6.65 -5.45,-14.32 -5.45,-23.02 0,-8.8 1.79,-16.52 5.37,-23.17 3.58,-6.65 8.59,-11.76 15.04,-15.35 6.45,-3.58 13.86,-5.37 22.25,-5.37 8.08,0 15.32,1.74 21.71,5.22 6.39,3.48 11.36,8.41 14.88,14.81 3.53,6.39 5.29,13.73 5.29,22.02zm-22.25 -6.14c-0.1,-5.52 -2.1,-9.95 -5.99,-13.27 -3.89,-3.33 -8.64,-4.99 -14.27,-4.99 -5.32,0 -9.8,1.61 -13.43,4.83 -3.63,3.22 -5.86,7.7 -6.67,13.43l40.36 0z"/>
   <path id="3" class="fil3" d="M625.08 137.54c2.76,-4.5 6.37,-8.03 10.82,-10.59 4.45,-2.56 9.54,-3.84 15.27,-3.84l0 22.56 -5.68 0c-6.75,0 -11.84,1.59 -15.27,4.76 -3.43,3.17 -5.14,8.69 -5.14,16.57l0 42.35 -21.48 0 0 -85.01 21.48 0 0 13.2z"/>
   <polygon id="4" class="fil4" points="723.59,102.24 723.59,209.36 702.11,209.36 702.11,102.24 "/>
   <path id="5" class="fil4" d="M791.88 123.11c10.13,0 18.31,3.2 24.55,9.59 6.24,6.39 9.36,15.32 9.36,26.78l0 49.87 -21.48 0 0 -46.96c0,-6.75 -1.69,-11.94 -5.07,-15.58 -3.38,-3.63 -7.98,-5.45 -13.81,-5.45 -5.93,0 -10.61,1.82 -14.04,5.45 -3.43,3.63 -5.14,8.82 -5.14,15.58l0 46.96 -21.48 0 0 -85.01 21.48 0 0 10.59c2.86,-3.68 6.52,-6.57 10.97,-8.67 4.45,-2.1 9.34,-3.15 14.65,-3.15z"/>
   <path id="6" class="fil4" d="M885.18 141.99l-14.89 0 0 67.37 -21.79 0 0 -67.37 -9.67 0 0 -17.65 9.67 0 0 -4.3c0,-10.43 2.97,-18.11 8.9,-23.02 5.93,-4.91 14.89,-7.21 26.86,-6.91l0 18.11c-5.22,-0.1 -8.85,0.77 -10.9,2.61 -2.05,1.84 -3.07,5.17 -3.07,9.97l0 3.53 14.89 0 0 17.65z"/>
   <path id="7" class="fil4" d="M936.9 210.74c-8.19,0 -15.55,-1.82 -22.1,-5.45 -6.55,-3.63 -11.69,-8.77 -15.42,-15.42 -3.73,-6.65 -5.6,-14.32 -5.6,-23.02 0,-8.69 1.92,-16.37 5.75,-23.02 3.84,-6.65 9.08,-11.79 15.73,-15.42 6.65,-3.63 14.07,-5.45 22.25,-5.45 8.18,0 15.6,1.82 22.25,5.45 6.65,3.63 11.89,8.77 15.73,15.42 3.84,6.65 5.75,14.32 5.75,23.02 0,8.7 -1.97,16.37 -5.91,23.02 -3.94,6.65 -9.26,11.79 -15.96,15.42 -6.7,3.63 -14.19,5.45 -22.48,5.45zm0 -18.72c3.89,0 7.54,-0.94 10.97,-2.84 3.43,-1.89 6.16,-4.73 8.21,-8.52 2.05,-3.78 3.07,-8.39 3.07,-13.81 0,-8.08 -2.12,-14.3 -6.37,-18.64 -4.25,-4.35 -9.44,-6.52 -15.58,-6.52 -6.14,0 -11.28,2.17 -15.42,6.52 -4.14,4.35 -6.22,10.56 -6.22,18.64 0,8.08 2.02,14.3 6.06,18.65 4.04,4.35 9.13,6.52 15.27,6.52z"/>
  </g>
 </g>
</svg>
